<?xml version="1.0" encoding="iso-8859-1"?>
<!-- Generator: Adobe Illustrator 16.0.0, SVG Export Plug-In . SVG Version: 6.00 Build 0)  -->
<!DOCTYPE svg PUBLIC "-//W3C//DTD SVG 1.1//EN" "http://www.w3.org/Graphics/SVG/1.1/DTD/svg11.dtd">
<svg version="1.1" id="Capa_1" xmlns="http://www.w3.org/2000/svg" xmlns:xlink="http://www.w3.org/1999/xlink" x="0px" y="0px"
	 width="314.014px" height="314.015px" viewBox="0 0 314.014 314.015" style="enable-background:new 0 0 314.014 314.015;"
	 xml:space="preserve">
<g>
	<g id="_x36_3._Trash">
		<g>
			<path d="M282.612,31.402h-47.099V15.701C235.513,7.033,228.471,0,219.812,0H94.205c-8.666,0-15.701,7.033-15.701,15.701v15.701
				H31.402c-8.668,0-15.701,7.033-15.701,15.699c0,8.668,7.033,15.701,15.701,15.701v219.81c0,17.344,14.06,31.402,31.4,31.402
				h188.411c17.341,0,31.398-14.059,31.398-31.402V62.803c8.664,0,15.701-7.033,15.701-15.701
				C298.313,38.436,291.292,31.402,282.612,31.402z M251.213,282.612H62.803V62.803h188.411V282.612z"/>
		</g>
	</g>
</g>
<g>
</g>
<g>
</g>
<g>
</g>
<g>
</g>
<g>
</g>
<g>
</g>
<g>
</g>
<g>
</g>
<g>
</g>
<g>
</g>
<g>
</g>
<g>
</g>
<g>
</g>
<g>
</g>
<g>
</g>
</svg>
